<svg xmlns="http://www.w3.org/2000/svg" viewBox="0 0 65.234 56.058"><path fill="#162A32" d="M40.083 13.799c0 1.086-.937 1.97-2.096 1.97-1.154 0-2.091-.883-2.091-1.97s.937-1.968 2.091-1.968c1.158 0 2.096.88 2.096 1.968"/><path fill="#162A32" d="M23.913 30.595s-.461-.209-.461-.837c0 0-.712-7.288 7.666-10.599 0 0 3.646-1.005 3.771-1.174 0 0-3.771-1.507-6.408-.125 0 0-2.681 1.298-3.895 2.68 0 0-1.216.84-1.551-.545 0 0 .083-3.684 4.608-5.487 0 0 3.893-1.296 8.375 1.593 0 0 2.935 1.212 4.065-.629 0 0 1.09-1.255 1.426-4.858 0 0-.128-1.761 1.548-3.017 0 0 1.844-.672 2.097.419 0 0 0 .292-.505 1.131 0 0-.837 3.606-.671 4.61 0 0-.754 4.731-5.823 7.662 0 0-3.14 1.844-5.986 2.514 0 0-4.36.46-6.664 3.601 0 0-.961 1.761-1.173 2.389-.002.003-.002.589-.419.672M36.689 25.317s-1.047-.249-.209-.878c0 0 2.715-.798 4.06-.671.927.086 4.317-.254 5.701-1.084 0 0 2.765-.967 5.193-6.247 0 0 .503-1.257.673-1.801 0 0 .585-1.842 4.483-4.105l1.089-.587s1.925-.335 1.299 1.048c0 0 .289.21-1.596 1.842 0 0-1.211.88-1.798 1.216 0 0-1.47.629-2.432 2.262 0 0-1.507 1.926-.21 3.769 0 0 1.049 1.675 4.273-.085 0 0 1.635-.251 1.215-4.397 0 0 .295-1.592 1.97-.879 0 0 2.68 1.171 1.382 4.271 0 0-.294 2.18-2.764 3.059 0 0-2.64.124-2.848.293 0 0-1.426.21-2.265 2.346 0 0-1.353 3.775-4.054 4.749 0 0-1.685.32-2.941.654 0 0-3.604.629-4.609 5.238 0 0-.21 1.213-.793.209 0 0-1.3-2.304-.128-4.607 0 0 .796-1.676 3.23-3.31 0 0 2.008-.838 2.804-2.094 0 0-4.317.379-5.866.042 0 0-3.35-.546-4.273-.252h-.586z"/><path fill="#162A32" d="M22.363 43.833s-.209-.21.042-.46c0 0 3.143-1.005 2.848-8.002 0 0 .377-5.821 4.901-7.834 0 0 1.591-.544 3.185-.249 0 0 4.814.668 6.032-.587 0 0 1.381-.671 1.005.711 0 0-.587 1.049-1.632 1.718 0 0-.965.922-3.981 1.214 0 0-3.937-.46-5.446 2.262 0 0-1.761 2.055-.505 3.645 0 0 .965 1.55 3.605.922 0 0 1.632-.378 2.052-2.262 0 0 .25-1.09-1.089-1.844 0 0-1.172-1.466.964-1.381 0 0 2.219-.295 3.395 2.513 0 0 1.422 3.519-2.433 4.733 0 0-1.382.168-3.098-.166 0 0-2.515-.546-3.897 1.466 0 0-1.089 2.095-2.553 3.268 0 0-1.008.711-2.096.711.001-.001-1.174-.042-1.299-.378"/><path fill="#162A32" d="M33.067 35.078c0 .926-.75 1.802-1.78 1.802s-1.949-.877-1.949-1.802c0-.924.835-1.675 1.864-1.675 1.029 0 1.865.75 1.865 1.675M41.455 21.959s5.654-3.857 5.237-13.66c0 0-.082-2.388-2.266-4.104 0 0-2.384-1.885-1.715-3.311 0 0 .17-.878 1.092-.878 0 0 3.191-.327 4.358 3.67.012.047.028.093.037.142.366 1.742.558 3.093.558 3.093s.074 1.136 1.036 1.723c0 0 4.943 2.557 5.612-5.195 0 0 .045-.419-.628-1.13 0 0-.544-.713.5-1.005 0 0 3.02.419 3.355 2.597 0 0 .586 2.681-2.054 4.608 0 0-3.897 2.135-4.189 2.22 0 0-1.508.502-2.348 2.722 0 0-.46 2.764-2.72 5.279 0 0-1.926 2.681-5.362 3.391.001.002-.418.212-.503-.162"/><path fill="#162A32" d="M53.608 4.969c-.284.989-1.401 1.784-2.28 1.533-.879-.253-1.182-1.459-.898-2.447.284-.989 1.224-1.588 2.103-1.335.88.252 1.362 1.259 1.075 2.249M2.775 37.423h-.083c0-.576-.485-1.145-1.104-1.145-.897 0-1.015 1.11-1.015 1.769s.119 1.77 1.015 1.77c.634 0 1.104-.624 1.104-1.254h.083v1.194h-.083c0-.102-.047-.252-.17-.252-.152 0-.416.392-.934.392-.85 0-1.588-.818-1.588-1.85 0-1.03.737-1.849 1.588-1.849.514 0 .733.366.92.366.143 0 .184-.094.184-.218h.083v1.077zM3.71 36.358h-.459v-.08h1.428v.08H4.22v3.378h.459v.081H3.251v-.081h.459zM6.23 36.358h-.108c-.896 0-1.095.138-1.095.961h-.082v-1.041h3.077v1.041h-.08c0-.823-.202-.961-1.091-.961H6.74v3.378h.518v.081H5.711v-.081h.519v-3.378zM9.612 38.52l-.942-2.162h-.456v-.08h1.461v.08h-.417l.839 1.947.625-1.41c.09-.2.13-.305.13-.399 0-.089-.062-.138-.225-.138h-.19v-.08h1.03v.08h-.213c-.191 0-.25.13-.317.276l-.813 1.803v1.298h.534v.081h-1.58v-.081h.535V38.52zM14.727 39.817c.896 0 1.015-1.112 1.015-1.77s-.119-1.769-1.015-1.769c-.894 0-1.015 1.11-1.015 1.769s.121 1.77 1.015 1.77m0-3.619c.85 0 1.588.819 1.588 1.849 0 1.032-.738 1.85-1.588 1.85-.85 0-1.587-.818-1.587-1.85 0-1.031.737-1.849 1.587-1.849M17.125 36.358h-.456v-.08h2.688l.07.853h-.085c-.019-.588-.351-.773-.904-.773h-.8v1.618h.374c.527 0 .574-.317.574-.643h.081v1.336h-.081c0-.382-.048-.612-.577-.612h-.371v1.679h.472v.081h-1.441v-.081h.456v-3.378zM56.963 18.031c0 .246.083 1.782-1.739 1.782-1.817 0-1.735-1.683-1.735-1.782 0-.984.774-1.779 1.735-1.779.958 0 1.739.795 1.739 1.779M12.116 50.905l-3.44-8.031H7.002v-.297h5.355v.297h-1.528l3.073 7.227 2.28-5.23c.331-.746.479-1.136.479-1.492 0-.319-.22-.505-.829-.505h-.698v-.297h3.774v.297h-.773c-.701 0-.921.485-1.161 1.028l-2.979 6.701v4.818h1.95v.299h-5.776v-.299h1.948v-4.516zM23.772 50.638c-1.595 0-3.586.049-3.586 2.557 0 1.316.196 2.303 1.593 2.303 1.643 0 2.365-1.317 2.365-1.785v-3.075h-.372zm2.211 3.873c0 .445.067 1.033.655 1.033.506 0 .81-.446 1.138-.938l.241.186c-.417.776-.987 1.268-1.927 1.268-1.028 0-1.773-.632-1.923-1.453h-.047c-.742 1.055-1.726 1.453-3.17 1.453-1.707 0-2.734-.914-2.734-2.509 0-2.631 3.258-3.285 5.512-3.285h.415V47.38c0-1.105-.962-1.362-1.792-1.362-.637 0-2.124.257-2.124 1.105 0 .562.723.304.723 1.36 0 .562-.438.985-1.006.985-.614 0-.963-.517-.963-1.314 0-1.198 1.182-2.512 3.371-2.512 1.66 0 3.63.915 3.63 2.723v6.146zM32.522 48.874h.92c2.171 0 3.443-.766 3.443-2.931 0-1.494-.497-3.005-3.111-3.005h-1.252v5.936zm-1.876-5.936h-1.842v-.299h5.649c2.115 0 4.416.485 4.416 3.305 0 2.279-2.593 2.875-3.935 3.044v.037c2.112.185 3.236.654 3.513 3.12l.259 2.278c.127 1.1.64 1.176.955 1.176.332 0 .57-.114.753-.187l.111.242c-.366.132-.827.244-1.507.244-2.246 0-2.376-1.214-2.631-3.362l-.129-1.121c-.129-1.176-.462-2.241-2.541-2.241h-1.195v6.31h1.877v.301h-5.594v-.301h1.842V42.938zM44.895 48.874h.92c2.171 0 3.441-.766 3.441-2.931 0-1.494-.498-3.005-3.111-3.005h-1.249v5.936zm-1.88-5.936h-1.84v-.299h5.65c2.115 0 4.416.485 4.416 3.305 0 2.279-2.594 2.875-3.938 3.044v.037c2.118.185 3.24.654 3.514 3.12l.258 2.278c.128 1.1.641 1.176.955 1.176.331 0 .57-.114.754-.187l.108.242c-.366.132-.827.244-1.507.244-2.242 0-2.374-1.214-2.629-3.362l-.131-1.121c-.125-1.176-.459-2.241-2.539-2.241h-1.192v6.31h1.876v.301h-5.595v-.301h1.84V42.938zM58.337 45.57H58.3l-1.804 5.657h3.733l-1.892-5.657zm1.986 5.957h-3.936l-.754 2.352c-.129.373-.276.823-.276 1.139 0 .26.219.465.809.465h.959v.301h-3.793v-.301h.589c.571 0 .811-.055 1.16-1.1l3.954-12.042h.205l4.471 13.142h1.523v.301h-5.39v-.301h1.802l-1.323-3.956z"/></svg>